<?xml version="1.0" standalone="no"?>
<!DOCTYPE svg PUBLIC "-//W3C//DTD SVG 20010904//EN"
 "http://www.w3.org/TR/2001/REC-SVG-20010904/DTD/svg10.dtd">
<svg version="1.0" xmlns="http://www.w3.org/2000/svg"
 width="879.000000pt" height="659.000000pt" viewBox="0 0 879.000000 659.000000"
 preserveAspectRatio="xMidYMid meet">
<metadata>
Created by potrace 1.16, written by Peter Selinger 2001-2019
</metadata>
<g transform="translate(0.000000,659.000000) scale(0.100000,-0.100000)"
fill="#000000" stroke="none">
<path d="M0 3295 l0 -3295 4395 0 4395 0 0 3295 0 3295 -4395 0 -4395 0 0
-3295z m5345 2133 c245 -130 276 -454 57 -612 -94 -69 -62 -67 -1092 -64
l-925 3 -57 27 c-79 37 -142 98 -181 177 -28 57 -32 75 -32 146 0 71 4 89 33
147 52 106 130 174 229 197 21 5 451 8 978 8 l940 -2 50 -27z m-94 -848 c116
-22 226 -106 272 -208 30 -66 29 -187 -2 -257 -40 -90 -94 -150 -167 -186
l-66 -33 -861 0 c-474 -1 -908 2 -964 5 -122 7 -188 35 -253 105 -96 105 -123
247 -68 366 50 108 145 187 249 207 64 13 1794 13 1860 1z m-1618 -898 c76
-33 157 -120 187 -199 33 -88 26 -207 -18 -296 -59 -118 -170 -189 -297 -189
-90 1 -137 13 -197 51 -218 138 -218 463 0 608 99 66 213 74 325 25z m-1305
-1944 l-3 -83 -215 -5 -215 -5 0 -65 0 -65 78 4 c43 2 127 0 188 -4 l110 -7
-3 -82 -3 -81 -187 -3 -188 -2 0 -145 0 -145 -85 0 -85 0 0 378 c0 208 3 382
7 385 3 4 141 7 305 7 l299 0 -3 -82z m558 44 c68 -35 124 -78 124 -96 0 -15
-79 -91 -103 -100 -11 -3 -30 1 -45 12 -37 25 -107 52 -137 52 -13 0 -49 -9
-79 -20 -154 -58 -201 -237 -89 -341 51 -48 102 -69 169 -69 54 0 69 4 114 35
29 19 55 35 59 35 4 0 33 -26 65 -59 l58 -58 -44 -35 c-89 -73 -120 -83 -253
-83 -112 0 -124 2 -178 28 -80 40 -151 112 -190 194 -28 61 -32 78 -32 158 0
108 17 153 91 234 97 107 198 153 329 148 66 -3 91 -9 141 -35z m394 -117 l0
-154 108 0 c59 0 128 3 154 5 l47 6 3 146 3 147 85 0 85 0 -3 -225 c-1 -124
-2 -295 -2 -381 l0 -156 -50 -7 c-28 -4 -66 -4 -85 0 l-35 6 0 144 0 144 -155
0 -155 0 0 -144 0 -144 -76 -7 c-42 -4 -80 -3 -84 2 -8 8 -16 461 -12 671 l2
102 85 0 85 0 0 -155z m1037 75 c142 -328 210 -490 242 -582 l38 -107 -62 -6
c-35 -4 -72 -4 -82 -1 -14 4 -31 34 -55 94 l-35 87 -119 2 c-154 2 -204 -4
-211 -25 -3 -9 -17 -47 -32 -84 l-26 -68 -77 0 c-60 0 -78 3 -78 14 0 8 18 58
41 113 22 54 70 170 105 258 76 188 160 366 177 377 7 5 41 7 77 6 l64 -3 33
-75z m793 69 c61 -19 131 -78 163 -139 26 -50 29 -62 25 -131 -4 -60 -10 -86
-31 -122 -28 -47 -86 -99 -124 -111 -54 -17 -48 -30 57 -132 55 -53 100 -103
100 -109 0 -16 -113 -29 -175 -20 -42 7 -53 15 -140 109 -92 98 -145 142 -159
129 -3 -3 -6 -57 -6 -120 l0 -113 -27 -2 c-94 -6 -119 -5 -130 4 -10 8 -13 97
-13 383 0 204 3 375 7 378 11 12 413 8 453 -4z m578 -76 c3 -83 3 -83 -23 -83
l-25 0 -1 -147 c-1 -82 -2 -177 -3 -213 -1 -64 -1 -65 27 -68 l27 -3 0 -85 0
-84 -57 -1 c-32 -1 -91 -3 -132 -5 -44 -2 -80 1 -88 8 -8 7 -13 35 -13 79 0
66 1 69 30 84 l30 16 0 204 c0 202 0 204 -22 211 -13 4 -26 12 -30 18 -10 14
-10 140 -1 150 4 3 68 5 142 4 l136 -3 3 -82z m985 45 c19 -24 52 -70 73 -103
50 -77 94 -135 103 -135 5 0 34 39 66 88 33 48 76 111 97 140 l39 52 89 0 c50
0 90 -4 90 -9 0 -4 -41 -68 -91 -142 -50 -74 -116 -172 -147 -219 l-57 -85 -2
-140 c-1 -77 -2 -147 -3 -156 0 -12 -14 -18 -57 -22 -31 -3 -69 -3 -85 0 l-28
5 0 157 0 157 -67 95 c-38 53 -102 148 -143 212 -41 64 -79 115 -85 113 -6 -2
-9 -33 -8 -69 l1 -66 -121 -3 -122 -3 -3 -297 -2 -298 -85 0 -85 0 -2 88 c-1
48 0 173 1 278 2 105 0 201 -4 213 -6 20 -13 21 -126 21 l-119 0 -1 28 c0 15
-1 50 -3 77 -2 28 -1 53 1 58 2 4 195 7 428 7 l424 0 34 -42z"/>
<path d="M4162 1512 c-48 -112 -51 -107 46 -110 58 -2 82 1 82 9 0 22 -75 178
-85 178 -5 0 -25 -34 -43 -77z"/>
<path d="M4827 1643 c-4 -3 -7 -51 -7 -105 l0 -98 115 0 c67 0 125 5 140 12
30 13 55 55 55 91 0 37 -41 91 -75 98 -41 9 -220 11 -228 2z"/>
</g>
</svg>
